{
  "accessors": [
    {
      "bufferView": 2,
      "componentType": 5126,
      "count": 6055,
      "max": [
        2644.4228515625,
        879.9210205078125,
        1249.126708984375
      ],
      "min": [
        -1681.534912109375,
        -879.9652099609375,
        -30.413999557495117
      ],
      "type": "VEC3"
    },
    {
      "bufferView": 2,
      "byteOffset": 72660,
      "componentType": 5126,
      "count": 6055,
      "type": "VEC3"
    },
    {
      "bufferView": 3,
      "componentType": 5126,
      "count": 6055,
      "type": "VEC4"
    },
    {
      "bufferView": 1,
      "componentType": 5126,
      "count": 6055,
      "type": "VEC2"
    },
    {
      "bufferView": 0,
      "componentType": 5125,
      "count": 25506,
      "type": "SCALAR"
    },
    {
      "bufferView": 2,
      "byteOffset": 145320,
      "componentType": 5126,
      "count": 3844,
      "max": [
        2644.4228515625,
        864.2620239257813,
        1264.729736328125
      ],
      "min": [
        -1617.41845703125,
        -879.30078125,
        -27.330900192260742
      ],
      "type": "VEC3"
    },
    {
      "bufferView": 2,
      "byteOffset": 191448,
      "componentType": 5126,
      "count": 3844,
      "type": "VEC3"
    },
    {
      "bufferView": 3,
      "byteOffset": 96880,
      "componentType": 5126,
      "count": 3844,
      "type": "VEC4"
    },
    {
      "bufferView": 1,
      "byteOffset": 48440,
      "componentType": 5126,
      "count": 3844,
      "type": "VEC2"
    },
    {
      "bufferView": 0,
      "byteOffset": 102024,
      "componentType": 5125,
      "count": 13680,
      "type": "SCALAR"
    }
  ],
  "asset": {
    "generator": "fab-model-conversion",
    "version": "2.0"
  },
  "bufferViews": [
    {
      "buffer": 0,
      "byteLength": 156744,
      "target": 34963
    },
    {
      "buffer": 0,
      "byteLength": 79192,
      "byteOffset": 156744,
      "byteStride": 8,
      "target": 34962
    },
    {
      "buffer": 0,
      "byteLength": 237576,
      "byteOffset": 235936,
      "byteStride": 12,
      "target": 34962
    },
    {
      "buffer": 0,
      "byteLength": 158384,
      "byteOffset": 473512,
      "byteStride": 16,
      "target": 34962
    }
  ],
  "buffers": [
    {
      "byteLength": 631896,
      "uri": "scene.bin"
    }
  ],
  "extensionsUsed": [
    "KHR_materials_transmission"
  ],
  "images": [
    {
      "uri": "textures/wire_184228153_baseColor.png"
    },
    {
      "uri": "textures/wire_184228153_metallicRoughness.png"
    },
    {
      "uri": "textures/wire_184228153_normal.png"
    },
    {
      "uri": "textures/wire_184228153_transmission.png"
    }
  ],
  "materials": [
    {
      "alphaMode": "BLEND",
      "doubleSided": true,
      "extensions": {
        "KHR_materials_transmission": {
          "transmissionFactor": 1.0,
          "transmissionTexture": {
            "index": 3
          }
        }
      },
      "name": "wire_184228153",
      "normalTexture": {
        "index": 2
      },
      "pbrMetallicRoughness": {
        "baseColorTexture": {
          "index": 0
        },
        "metallicRoughnessTexture": {
          "index": 1
        }
      }
    }
  ],
  "meshes": [
    {
      "name": "Object_0",
      "primitives": [
        {
          "attributes": {
            "NORMAL": 1,
            "POSITION": 0,
            "TANGENT": 2,
            "TEXCOORD_0": 3
          },
          "indices": 4,
          "material": 0,
          "mode": 4
        }
      ]
    },
    {
      "name": "Object_1",
      "primitives": [
        {
          "attributes": {
            "NORMAL": 6,
            "POSITION": 5,
            "TANGENT": 7,
            "TEXCOORD_0": 8
          },
          "indices": 9,
          "material": 0,
          "mode": 4
        }
      ]
    }
  ],
  "nodes": [
    {
      "children": [
        1
      ],
      "matrix": [
        1.0,
        0.0,
        0.0,
        0.0,
        0.0,
        2.220446049250313e-16,
        -1.0,
        0.0,
        0.0,
        1.0,
        2.220446049250313e-16,
        0.0,
        0.0,
        0.0,
        0.0,
        1.0
      ],
      "name": "Sketchfab_model"
    },
    {
      "children": [
        2,
        3
      ],
      "name": "BMW_E30_Abandoned.obj.cleaner.materialmerger.gles"
    },
    {
      "mesh": 0,
      "name": "Object_2"
    },
    {
      "mesh": 1,
      "name": "Object_3"
    }
  ],
  "samplers": [
    {
      "magFilter": 9729,
      "minFilter": 9987,
      "wrapS": 10497,
      "wrapT": 10497
    }
  ],
  "scene": 0,
  "scenes": [
    {
      "name": "Sketchfab_Scene",
      "nodes": [
        0
      ]
    }
  ],
  "textures": [
    {
      "sampler": 0,
      "source": 0
    },
    {
      "sampler": 0,
      "source": 1
    },
    {
      "sampler": 0,
      "source": 2
    },
    {
      "sampler": 0,
      "source": 3
    }
  ]
}
